<?xml version="1.0" standalone="no"?><!DOCTYPE svg PUBLIC "-//W3C//DTD SVG 1.1//EN" "http://www.w3.org/Graphics/SVG/1.1/DTD/svg11.dtd"><svg t="1700668449652" class="icon" viewBox="0 0 1185 1024" version="1.1" xmlns="http://www.w3.org/2000/svg" p-id="2801" xmlns:xlink="http://www.w3.org/1999/xlink" width="231.4453125" height="200"><path d="M1071.912421 128.754526h-521.000421c-5.928421 0-11.964632 0-17.946947-5.874526L437.086316 29.264842C419.193263 11.695158 389.227789 0 359.316211 0H113.717895C53.894737 0 0 46.834526 0 111.184842v801.630316C0 971.344842 47.912421 1024 113.771789 1024H1071.966316C1131.789474 1024 1185.684211 977.165474 1185.684211 912.815158V239.885474c0-58.475789-53.894737-111.130947-113.77179-111.130948z m23.929263 784.060632c0 11.695158-11.964632 23.390316-23.929263 23.390316H113.717895c-11.964632 0-23.929263-11.695158-23.929263-23.390316V111.184842c0-11.695158 11.964632-23.390316 23.929263-23.390316h245.544421c5.928421 0 11.964632 0 17.946947 5.820632l95.824842 93.615158c17.946947 17.569684 47.912421 29.264842 77.824 29.264842h521.000421c11.964632 0 23.929263 11.695158 23.929263 23.390316v672.929684zM317.44 397.904842c-23.983158 0-47.912421 17.569684-47.912421 46.780632 0 29.264842 17.946947 46.834526 47.912421 46.834526h514.964211c23.983158 0 47.966316-17.569684 47.966315-46.834526 0-29.210947-18.000842-46.780632-47.966315-46.780632H317.44z" fill="#767A85" p-id="2802"></path></svg>